<!DOCTYPE svg PUBLIC "-//W3C//DTD SVG 1.1//EN" "http://www.w3.org/Graphics/SVG/1.1/DTD/svg11.dtd">
<!-- Uploaded to: SVG Repo, www.svgrepo.com, Transformed by: SVG Repo Mixer Tools -->
<svg fill="#403535" height="64px" width="64px" version="1.1" id="Layer_1" xmlns="http://www.w3.org/2000/svg" xmlns:xlink="http://www.w3.org/1999/xlink" viewBox="-117.76 -117.76 747.52 747.52" xml:space="preserve" stroke="#403535">
<g id="SVGRepo_bgCarrier" stroke-width="0"/>
<g id="SVGRepo_tracerCarrier" stroke-linecap="round" stroke-linejoin="round" stroke="#ffffff" stroke-width="59.391999999999996"> <g> <g> <path d="M467.204,67.921C412.786,20.394,329.86,25.984,282.31,80.365l-26.311,29.66l-26.311-29.66 C182.138,25.984,99.212,20.396,44.795,67.921c-54.437,47.543-60.045,130.51-12.503,184.946l185.641,206.535 c9.692,10.783,23.568,16.968,38.067,16.968c14.499,0,28.375-6.185,38.067-16.968L479.546,253.05l0.161-0.182 C527.251,198.431,521.641,115.464,467.204,67.921z"/> </g> </g> </g>
<g id="SVGRepo_iconCarrier"> <g> <g> <path d="M467.204,67.921C412.786,20.394,329.86,25.984,282.31,80.365l-26.311,29.66l-26.311-29.66 C182.138,25.984,99.212,20.396,44.795,67.921c-54.437,47.543-60.045,130.51-12.503,184.946l185.641,206.535 c9.692,10.783,23.568,16.968,38.067,16.968c14.499,0,28.375-6.185,38.067-16.968L479.546,253.05l0.161-0.182 C527.251,198.431,521.641,115.464,467.204,67.921z"/> </g> </g> </g>
</svg>